<svg xmlns="http://www.w3.org/2000/svg" width="1280" height="390" viewBox="0 0 1280 390" role="img" aria-labelledby="title desc">
  <title id="title">Pedro Eduardo Quispe Ramírez — Civil Engineer, BIM and Automation Developer</title>
  <desc id="desc">A technology-forward banner combining civil infrastructure geometry, BIM data and artificial intelligence.</desc>
  <defs>
    <linearGradient id="bg" x1="0" y1="0" x2="1" y2="1">
      <stop offset="0" stop-color="#050B14"/>
      <stop offset=".48" stop-color="#0A2034"/>
      <stop offset="1" stop-color="#123C4D"/>
    </linearGradient>
    <linearGradient id="accent" x1="0" y1="0" x2="1" y2="0">
      <stop offset="0" stop-color="#29D8FF"/>
      <stop offset=".48" stop-color="#70FFD4"/>
      <stop offset="1" stop-color="#A78BFA"/>
    </linearGradient>
    <radialGradient id="orb">
      <stop offset="0" stop-color="#5DE8FF" stop-opacity=".28"/>
      <stop offset=".62" stop-color="#5DE8FF" stop-opacity=".06"/>
      <stop offset="1" stop-color="#5DE8FF" stop-opacity="0"/>
    </radialGradient>
    <pattern id="grid" width="32" height="32" patternUnits="userSpaceOnUse">
      <path d="M32 0H0V32" fill="none" stroke="#A8E6F3" stroke-opacity=".055"/>
    </pattern>
    <filter id="glow">
      <feGaussianBlur stdDeviation="5" result="b"/>
      <feMerge><feMergeNode in="b"/><feMergeNode in="SourceGraphic"/></feMerge>
    </filter>
  </defs>

  <rect width="1280" height="390" rx="24" fill="url(#bg)"/>
  <rect width="1280" height="390" rx="24" fill="url(#grid)"/>
  <circle cx="1028" cy="188" r="250" fill="url(#orb)"/>

  <g fill="none" stroke="#59C8DB" stroke-opacity=".11" stroke-width="1.2">
    <path d="M-30 304C106 247 194 343 339 294S580 240 709 284"/>
    <path d="M-30 321C106 264 194 360 339 311S580 257 709 301"/>
    <path d="M-30 338C106 281 194 377 339 328S580 274 709 318"/>
    <path d="M-30 355C106 298 194 394 339 345S580 291 709 335"/>
  </g>

  <g transform="translate(66 52)">
    <g>
      <rect width="184" height="30" rx="15" fill="#29D8FF" fill-opacity=".1" stroke="#52E7FF" stroke-opacity=".48"/>
      <circle cx="18" cy="15" r="4" fill="#70FFD4"/>
      <text x="100" y="20" fill="#BFF7FF" font-family="Segoe UI,Arial,sans-serif" font-size="12" font-weight="700" text-anchor="middle" letter-spacing="1.6">UNI · LIMA, PERÚ</text>
    </g>

    <text y="92" fill="#F7FBFF" font-family="Segoe UI,Arial,sans-serif" font-size="43" font-weight="800" letter-spacing=".5">PEDRO EDUARDO</text>
    <text y="141" fill="#F7FBFF" font-family="Segoe UI,Arial,sans-serif" font-size="43" font-weight="800" letter-spacing=".5">QUISPE RAMÍREZ</text>
    <rect y="163" width="536" height="3" rx="2" fill="url(#accent)"/>
    <text y="205" fill="#73F5D6" font-family="Segoe UI,Arial,sans-serif" font-size="19" font-weight="750" letter-spacing="1.8">CIVIL ENGINEER × BIM DEVELOPER</text>
    <text y="239" fill="#BCD2DF" font-family="Segoe UI,Arial,sans-serif" font-size="15" font-weight="500" letter-spacing=".8">CIVIL 3D · REVIT API · .NET / C# · GEO DATA · AI</text>

    <g transform="translate(0 268)">
      <rect width="150" height="33" rx="9" fill="#0C2C40" stroke="#29D8FF" stroke-opacity=".3"/>
      <text x="75" y="21" fill="#9EDFF0" font-family="Segoe UI,Arial,sans-serif" font-size="11" font-weight="700" text-anchor="middle" letter-spacing="1">INFRASTRUCTURE</text>
      <rect x="162" width="126" height="33" rx="9" fill="#0C2C40" stroke="#70FFD4" stroke-opacity=".3"/>
      <text x="225" y="21" fill="#A8F5DE" font-family="Segoe UI,Arial,sans-serif" font-size="11" font-weight="700" text-anchor="middle" letter-spacing="1">AUTOMATION</text>
      <rect x="300" width="121" height="33" rx="9" fill="#0C2C40" stroke="#A78BFA" stroke-opacity=".36"/>
      <text x="360.5" y="21" fill="#D2C5FF" font-family="Segoe UI,Arial,sans-serif" font-size="11" font-weight="700" text-anchor="middle" letter-spacing="1">AI-ENHANCED</text>
    </g>
  </g>

  <g transform="translate(790 34)">
    <circle cx="208" cy="160" r="126" fill="none" stroke="#5DE8FF" stroke-opacity=".13"/>
    <circle cx="208" cy="160" r="91" fill="none" stroke="#A78BFA" stroke-opacity=".18" stroke-dasharray="4 9"/>
    <circle cx="208" cy="160" r="58" fill="#0B2639" stroke="url(#accent)" stroke-width="2"/>
    <circle cx="208" cy="160" r="78" fill="none" stroke="#70FFD4" stroke-opacity=".08" stroke-width="16"/>

    <g stroke="#76E7EE" stroke-opacity=".38" stroke-width="1.4">
      <line x1="208" y1="102" x2="208" y2="56"/>
      <line x1="258" y1="130" x2="314" y2="98"/>
      <line x1="258" y1="190" x2="315" y2="222"/>
      <line x1="158" y1="190" x2="103" y2="225"/>
      <line x1="158" y1="130" x2="101" y2="98"/>
      <line x1="208" y1="218" x2="208" y2="274"/>
    </g>

    <g>
      <circle cx="208" cy="56" r="11" fill="#29D8FF"/><circle cx="314" cy="98" r="11" fill="#70FFD4"/>
      <circle cx="315" cy="222" r="11" fill="#A78BFA"/><circle cx="103" cy="225" r="11" fill="#FFB86B"/>
      <circle cx="101" cy="98" r="11" fill="#4FC3F7"/><circle cx="208" cy="274" r="11" fill="#64E3B2"/>
    </g>

    <text x="208" y="151" fill="#A9F3FF" font-family="Segoe UI,Arial,sans-serif" font-size="13" font-weight="700" text-anchor="middle" letter-spacing="2">BIM</text>
    <text x="208" y="178" fill="#FFFFFF" font-family="Segoe UI,Arial,sans-serif" font-size="25" font-weight="850" text-anchor="middle">API × AI</text>

    <g fill="#AFC8D7" font-family="Segoe UI,Arial,sans-serif" font-size="11" font-weight="700" letter-spacing=".9">
      <text x="208" y="34" text-anchor="middle">DATA</text>
      <text x="348" y="100">CODE</text>
      <text x="348" y="226">BIM</text>
      <text x="28" y="230">GEO</text>
      <text x="24" y="101">DESIGN</text>
      <text x="208" y="306" text-anchor="middle">QUALITY</text>
    </g>

    <g transform="translate(28 311)" fill="none">
      <path d="M0 17C42-7 70 34 113 13s74-15 112 2 70 20 113-4" stroke="#29D8FF" stroke-opacity=".27" stroke-width="10"/>
      <path d="M0 17C42-7 70 34 113 13s74-15 112 2 70 20 113-4" stroke="url(#accent)" stroke-width="2.5" filter="url(#glow)"/>
      <g fill="#081929" stroke="#70FFD4" stroke-width="2">
        <circle cx="0" cy="17" r="5"/><circle cx="113" cy="13" r="5"/><circle cx="225" cy="15" r="5"/><circle cx="338" cy="11" r="5"/>
      </g>
    </g>
  </g>
</svg>